<mxfile host="65bd71144e">
    <diagram id="EYSat-z2N-eyqF5U7tOu" name="Luas dan Keliling Lingkaran">
        <mxGraphModel dx="784" dy="563" grid="1" gridSize="10" guides="1" tooltips="1" connect="1" arrows="1" fold="1" page="1" pageScale="1" pageWidth="850" pageHeight="1100" math="0" shadow="0">
            <root>
                <mxCell id="0"/>
                <mxCell id="1" parent="0"/>
                <mxCell id="10" value="" style="edgeStyle=none;html=1;" parent="1" source="2" target="7" edge="1">
                    <mxGeometry relative="1" as="geometry"/>
                </mxCell>
                <mxCell id="2" value="START" style="ellipse;whiteSpace=wrap;html=1;" parent="1" vertex="1">
                    <mxGeometry x="60" y="220" width="120" height="80" as="geometry"/>
                </mxCell>
                <mxCell id="12" value="" style="edgeStyle=none;html=1;" parent="1" source="3" target="11" edge="1">
                    <mxGeometry relative="1" as="geometry"/>
                </mxCell>
                <object label="INPUT r" hedietLinkedDataV1_path="../5-menghitung luas dadu" hedietLinkedDataV1_start_col_x-num="0" hedietLinkedDataV1_start_line_x-num="0" hedietLinkedDataV1_end_col_x-num="0" hedietLinkedDataV1_end_line_x-num="0" id="3">
                    <mxCell style="shape=parallelogram;perimeter=parallelogramPerimeter;whiteSpace=wrap;html=1;fixedSize=1;" parent="1" vertex="1">
                        <mxGeometry x="365" y="230" width="120" height="60" as="geometry"/>
                    </mxCell>
                </object>
                <mxCell id="9" value="" style="edgeStyle=none;html=1;" parent="1" source="7" target="3" edge="1">
                    <mxGeometry relative="1" as="geometry"/>
                </mxCell>
                <mxCell id="7" value="hasil, pi" style="shape=process;whiteSpace=wrap;html=1;backgroundOutline=1;" parent="1" vertex="1">
                    <mxGeometry x="210" y="230" width="120" height="60" as="geometry"/>
                </mxCell>
                <mxCell id="14" value="false" style="edgeStyle=none;html=1;" parent="1" source="11" target="13" edge="1">
                    <mxGeometry relative="1" as="geometry"/>
                </mxCell>
                <mxCell id="54" value="" style="edgeStyle=none;html=1;" parent="1" source="11" target="53" edge="1">
                    <mxGeometry relative="1" as="geometry"/>
                </mxCell>
                <mxCell id="11" value="r = num" style="rhombus;whiteSpace=wrap;html=1;" parent="1" vertex="1">
                    <mxGeometry x="520" y="220" width="80" height="80" as="geometry"/>
                </mxCell>
                <mxCell id="3y9N2vOkkK7y7WOd7iPy-93" style="edgeStyle=none;html=1;exitX=0;exitY=0.5;exitDx=0;exitDy=0;entryX=0.5;entryY=0;entryDx=0;entryDy=0;" parent="1" source="13" target="3" edge="1">
                    <mxGeometry relative="1" as="geometry">
                        <Array as="points">
                            <mxPoint x="425" y="110"/>
                        </Array>
                    </mxGeometry>
                </mxCell>
                <mxCell id="13" value="OUTPUT &quot;please input valid number&quot;" style="shape=parallelogram;perimeter=parallelogramPerimeter;whiteSpace=wrap;html=1;fixedSize=1;" parent="1" vertex="1">
                    <mxGeometry x="480" y="70" width="160" height="80" as="geometry"/>
                </mxCell>
                <mxCell id="56" value="true" style="edgeStyle=none;html=1;" parent="1" source="53" target="55" edge="1">
                    <mxGeometry relative="1" as="geometry"/>
                </mxCell>
                <mxCell id="60" value="false" style="edgeStyle=none;html=1;exitX=0;exitY=1;exitDx=0;exitDy=0;entryX=0.867;entryY=0.033;entryDx=0;entryDy=0;entryPerimeter=0;" parent="1" source="53" target="59" edge="1">
                    <mxGeometry relative="1" as="geometry"/>
                </mxCell>
                <mxCell id="53" value="r =% 7" style="rhombus;whiteSpace=wrap;html=1;" parent="1" vertex="1">
                    <mxGeometry x="650" y="220" width="80" height="80" as="geometry"/>
                </mxCell>
                <mxCell id="64" style="edgeStyle=none;html=1;exitX=0.5;exitY=1;exitDx=0;exitDy=0;entryX=0.5;entryY=1;entryDx=0;entryDy=0;" parent="1" source="55" target="61" edge="1">
                    <mxGeometry relative="1" as="geometry">
                        <Array as="points">
                            <mxPoint x="690" y="440"/>
                            <mxPoint x="400" y="440"/>
                        </Array>
                    </mxGeometry>
                </mxCell>
                <mxCell id="55" value="Pi = 22/7" style="whiteSpace=wrap;html=1;" parent="1" vertex="1">
                    <mxGeometry x="630" y="330" width="120" height="60" as="geometry"/>
                </mxCell>
                <mxCell id="62" value="" style="edgeStyle=none;html=1;" parent="1" source="59" target="61" edge="1">
                    <mxGeometry relative="1" as="geometry"/>
                </mxCell>
                <mxCell id="59" value="pi = 3.14" style="rounded=0;whiteSpace=wrap;html=1;" parent="1" vertex="1">
                    <mxGeometry x="490" y="330" width="120" height="60" as="geometry"/>
                </mxCell>
                <mxCell id="66" style="edgeStyle=none;html=1;exitX=0;exitY=0.5;exitDx=0;exitDy=0;" parent="1" source="61" target="65" edge="1">
                    <mxGeometry relative="1" as="geometry"/>
                </mxCell>
                <mxCell id="61" value="hasil = pi*r*r" style="rounded=0;whiteSpace=wrap;html=1;" parent="1" vertex="1">
                    <mxGeometry x="340" y="330" width="120" height="60" as="geometry"/>
                </mxCell>
                <mxCell id="68" value="" style="edgeStyle=none;html=1;" parent="1" source="65" target="67" edge="1">
                    <mxGeometry relative="1" as="geometry"/>
                </mxCell>
                <mxCell id="65" value="OUTPUT hasil" style="shape=parallelogram;perimeter=parallelogramPerimeter;whiteSpace=wrap;html=1;fixedSize=1;" parent="1" vertex="1">
                    <mxGeometry x="210" y="330" width="120" height="60" as="geometry"/>
                </mxCell>
                <mxCell id="67" value="END" style="ellipse;whiteSpace=wrap;html=1;" parent="1" vertex="1">
                    <mxGeometry x="60" y="320" width="120" height="80" as="geometry"/>
                </mxCell>
                <mxCell id="3y9N2vOkkK7y7WOd7iPy-94" value="Menghitung Luas Lingkaran" style="text;html=1;align=center;verticalAlign=middle;resizable=0;points=[];autosize=1;strokeColor=none;fillColor=none;" parent="1" vertex="1">
                    <mxGeometry x="325" y="35" width="170" height="30" as="geometry"/>
                </mxCell>
                <mxCell id="3y9N2vOkkK7y7WOd7iPy-95" value="Menghitung Keliling Lingkaran" style="text;html=1;align=center;verticalAlign=middle;resizable=0;points=[];autosize=1;strokeColor=none;fillColor=none;" parent="1" vertex="1">
                    <mxGeometry x="320" y="510" width="180" height="30" as="geometry"/>
                </mxCell>
                <mxCell id="Yg-fXGmywBbAjabtKlyo-92" value="" style="edgeStyle=none;html=1;" parent="1" source="Yg-fXGmywBbAjabtKlyo-93" target="Yg-fXGmywBbAjabtKlyo-97" edge="1">
                    <mxGeometry relative="1" as="geometry"/>
                </mxCell>
                <mxCell id="Yg-fXGmywBbAjabtKlyo-93" value="START" style="ellipse;whiteSpace=wrap;html=1;" parent="1" vertex="1">
                    <mxGeometry x="65" y="690" width="120" height="80" as="geometry"/>
                </mxCell>
                <mxCell id="Yg-fXGmywBbAjabtKlyo-94" value="" style="edgeStyle=none;html=1;" parent="1" source="Yg-fXGmywBbAjabtKlyo-95" target="Yg-fXGmywBbAjabtKlyo-100" edge="1">
                    <mxGeometry relative="1" as="geometry"/>
                </mxCell>
                <object label="INPUT r" hedietLinkedDataV1_path="../5-menghitung luas dadu" hedietLinkedDataV1_start_col_x-num="0" hedietLinkedDataV1_start_line_x-num="0" hedietLinkedDataV1_end_col_x-num="0" hedietLinkedDataV1_end_line_x-num="0" id="Yg-fXGmywBbAjabtKlyo-95">
                    <mxCell style="shape=parallelogram;perimeter=parallelogramPerimeter;whiteSpace=wrap;html=1;fixedSize=1;" parent="1" vertex="1">
                        <mxGeometry x="370" y="700" width="120" height="60" as="geometry"/>
                    </mxCell>
                </object>
                <mxCell id="Yg-fXGmywBbAjabtKlyo-96" value="" style="edgeStyle=none;html=1;" parent="1" source="Yg-fXGmywBbAjabtKlyo-97" target="Yg-fXGmywBbAjabtKlyo-95" edge="1">
                    <mxGeometry relative="1" as="geometry"/>
                </mxCell>
                <mxCell id="Yg-fXGmywBbAjabtKlyo-97" value="hasil, pi" style="shape=process;whiteSpace=wrap;html=1;backgroundOutline=1;" parent="1" vertex="1">
                    <mxGeometry x="215" y="700" width="120" height="60" as="geometry"/>
                </mxCell>
                <mxCell id="Yg-fXGmywBbAjabtKlyo-98" value="false" style="edgeStyle=none;html=1;" parent="1" source="Yg-fXGmywBbAjabtKlyo-100" target="Yg-fXGmywBbAjabtKlyo-102" edge="1">
                    <mxGeometry relative="1" as="geometry"/>
                </mxCell>
                <mxCell id="Yg-fXGmywBbAjabtKlyo-99" value="" style="edgeStyle=none;html=1;" parent="1" source="Yg-fXGmywBbAjabtKlyo-100" target="Yg-fXGmywBbAjabtKlyo-105" edge="1">
                    <mxGeometry relative="1" as="geometry"/>
                </mxCell>
                <mxCell id="Yg-fXGmywBbAjabtKlyo-100" value="r = num" style="rhombus;whiteSpace=wrap;html=1;" parent="1" vertex="1">
                    <mxGeometry x="525" y="690" width="80" height="80" as="geometry"/>
                </mxCell>
                <mxCell id="Yg-fXGmywBbAjabtKlyo-101" style="edgeStyle=none;html=1;exitX=0;exitY=0.5;exitDx=0;exitDy=0;entryX=0.5;entryY=0;entryDx=0;entryDy=0;" parent="1" source="Yg-fXGmywBbAjabtKlyo-102" target="Yg-fXGmywBbAjabtKlyo-95" edge="1">
                    <mxGeometry relative="1" as="geometry">
                        <Array as="points">
                            <mxPoint x="430" y="580"/>
                        </Array>
                    </mxGeometry>
                </mxCell>
                <mxCell id="Yg-fXGmywBbAjabtKlyo-102" value="OUTPUT &quot;please input valid number&quot;" style="shape=parallelogram;perimeter=parallelogramPerimeter;whiteSpace=wrap;html=1;fixedSize=1;" parent="1" vertex="1">
                    <mxGeometry x="485" y="540" width="160" height="80" as="geometry"/>
                </mxCell>
                <mxCell id="Yg-fXGmywBbAjabtKlyo-103" value="true" style="edgeStyle=none;html=1;" parent="1" source="Yg-fXGmywBbAjabtKlyo-105" target="Yg-fXGmywBbAjabtKlyo-107" edge="1">
                    <mxGeometry relative="1" as="geometry"/>
                </mxCell>
                <mxCell id="Yg-fXGmywBbAjabtKlyo-104" value="false" style="edgeStyle=none;html=1;exitX=0;exitY=1;exitDx=0;exitDy=0;entryX=0.867;entryY=0.033;entryDx=0;entryDy=0;entryPerimeter=0;" parent="1" source="Yg-fXGmywBbAjabtKlyo-105" target="Yg-fXGmywBbAjabtKlyo-109" edge="1">
                    <mxGeometry relative="1" as="geometry"/>
                </mxCell>
                <mxCell id="Yg-fXGmywBbAjabtKlyo-105" value="r =% 7" style="rhombus;whiteSpace=wrap;html=1;" parent="1" vertex="1">
                    <mxGeometry x="655" y="690" width="80" height="80" as="geometry"/>
                </mxCell>
                <mxCell id="Yg-fXGmywBbAjabtKlyo-106" style="edgeStyle=none;html=1;exitX=0.5;exitY=1;exitDx=0;exitDy=0;entryX=0.5;entryY=1;entryDx=0;entryDy=0;" parent="1" source="Yg-fXGmywBbAjabtKlyo-107" target="Yg-fXGmywBbAjabtKlyo-111" edge="1">
                    <mxGeometry relative="1" as="geometry">
                        <Array as="points">
                            <mxPoint x="695" y="910"/>
                            <mxPoint x="405" y="910"/>
                        </Array>
                    </mxGeometry>
                </mxCell>
                <mxCell id="Yg-fXGmywBbAjabtKlyo-107" value="Pi = 22/7" style="whiteSpace=wrap;html=1;" parent="1" vertex="1">
                    <mxGeometry x="635" y="800" width="120" height="60" as="geometry"/>
                </mxCell>
                <mxCell id="Yg-fXGmywBbAjabtKlyo-108" value="" style="edgeStyle=none;html=1;" parent="1" source="Yg-fXGmywBbAjabtKlyo-109" target="Yg-fXGmywBbAjabtKlyo-111" edge="1">
                    <mxGeometry relative="1" as="geometry"/>
                </mxCell>
                <mxCell id="Yg-fXGmywBbAjabtKlyo-109" value="pi = 3.14" style="rounded=0;whiteSpace=wrap;html=1;" parent="1" vertex="1">
                    <mxGeometry x="495" y="800" width="120" height="60" as="geometry"/>
                </mxCell>
                <mxCell id="Yg-fXGmywBbAjabtKlyo-110" style="edgeStyle=none;html=1;exitX=0;exitY=0.5;exitDx=0;exitDy=0;" parent="1" source="Yg-fXGmywBbAjabtKlyo-111" target="Yg-fXGmywBbAjabtKlyo-113" edge="1">
                    <mxGeometry relative="1" as="geometry"/>
                </mxCell>
                <mxCell id="Yg-fXGmywBbAjabtKlyo-111" value="hasil = 2*pi*r" style="rounded=0;whiteSpace=wrap;html=1;" parent="1" vertex="1">
                    <mxGeometry x="345" y="800" width="120" height="60" as="geometry"/>
                </mxCell>
                <mxCell id="Yg-fXGmywBbAjabtKlyo-112" value="" style="edgeStyle=none;html=1;" parent="1" source="Yg-fXGmywBbAjabtKlyo-113" target="Yg-fXGmywBbAjabtKlyo-114" edge="1">
                    <mxGeometry relative="1" as="geometry"/>
                </mxCell>
                <mxCell id="Yg-fXGmywBbAjabtKlyo-113" value="OUTPUT hasil" style="shape=parallelogram;perimeter=parallelogramPerimeter;whiteSpace=wrap;html=1;fixedSize=1;" parent="1" vertex="1">
                    <mxGeometry x="215" y="800" width="120" height="60" as="geometry"/>
                </mxCell>
                <mxCell id="Yg-fXGmywBbAjabtKlyo-114" value="END" style="ellipse;whiteSpace=wrap;html=1;" parent="1" vertex="1">
                    <mxGeometry x="65" y="790" width="120" height="80" as="geometry"/>
                </mxCell>
            </root>
        </mxGraphModel>
    </diagram>
    <diagram id="mYNq08L5i1HmZil4bkkc" name="Menghitung Luas Dadu">
        <mxGraphModel dx="784" dy="563" grid="1" gridSize="10" guides="1" tooltips="1" connect="1" arrows="1" fold="1" page="1" pageScale="1" pageWidth="850" pageHeight="1100" math="0" shadow="0">
            <root>
                <mxCell id="0"/>
                <mxCell id="1" parent="0"/>
                <mxCell id="7p9fBmsLSSAzzL6cEcp--3" value="" style="edgeStyle=none;html=1;" parent="1" source="7p9fBmsLSSAzzL6cEcp--1" target="7p9fBmsLSSAzzL6cEcp--2" edge="1">
                    <mxGeometry relative="1" as="geometry"/>
                </mxCell>
                <mxCell id="7p9fBmsLSSAzzL6cEcp--1" value="START" style="ellipse;whiteSpace=wrap;html=1;" parent="1" vertex="1">
                    <mxGeometry x="80" y="300" width="120" height="80" as="geometry"/>
                </mxCell>
                <mxCell id="qlpWUZ75xZie_0icfUTR-2" value="" style="edgeStyle=none;html=1;" parent="1" source="7p9fBmsLSSAzzL6cEcp--2" target="qlpWUZ75xZie_0icfUTR-1" edge="1">
                    <mxGeometry relative="1" as="geometry"/>
                </mxCell>
                <mxCell id="7p9fBmsLSSAzzL6cEcp--2" value="hasil" style="shape=process;whiteSpace=wrap;html=1;backgroundOutline=1;" parent="1" vertex="1">
                    <mxGeometry x="230" y="310" width="120" height="60" as="geometry"/>
                </mxCell>
                <mxCell id="qlpWUZ75xZie_0icfUTR-4" value="" style="edgeStyle=none;html=1;" parent="1" source="qlpWUZ75xZie_0icfUTR-1" target="qlpWUZ75xZie_0icfUTR-3" edge="1">
                    <mxGeometry relative="1" as="geometry"/>
                </mxCell>
                <mxCell id="qlpWUZ75xZie_0icfUTR-1" value="INPUT s" style="shape=parallelogram;perimeter=parallelogramPerimeter;whiteSpace=wrap;html=1;fixedSize=1;" parent="1" vertex="1">
                    <mxGeometry x="380" y="310" width="120" height="60" as="geometry"/>
                </mxCell>
                <mxCell id="qlpWUZ75xZie_0icfUTR-6" value="" style="edgeStyle=none;html=1;" parent="1" source="qlpWUZ75xZie_0icfUTR-3" target="qlpWUZ75xZie_0icfUTR-5" edge="1">
                    <mxGeometry relative="1" as="geometry"/>
                </mxCell>
                <mxCell id="qlpWUZ75xZie_0icfUTR-10" value="" style="edgeStyle=none;html=1;" parent="1" source="qlpWUZ75xZie_0icfUTR-3" target="qlpWUZ75xZie_0icfUTR-9" edge="1">
                    <mxGeometry relative="1" as="geometry"/>
                </mxCell>
                <mxCell id="qlpWUZ75xZie_0icfUTR-3" value="s = num" style="rhombus;whiteSpace=wrap;html=1;" parent="1" vertex="1">
                    <mxGeometry x="530" y="300" width="80" height="80" as="geometry"/>
                </mxCell>
                <mxCell id="qlpWUZ75xZie_0icfUTR-18" style="edgeStyle=none;html=1;exitX=0;exitY=0.5;exitDx=0;exitDy=0;entryX=0.5;entryY=0;entryDx=0;entryDy=0;" parent="1" source="qlpWUZ75xZie_0icfUTR-5" target="qlpWUZ75xZie_0icfUTR-1" edge="1">
                    <mxGeometry relative="1" as="geometry">
                        <Array as="points">
                            <mxPoint x="440" y="210"/>
                        </Array>
                    </mxGeometry>
                </mxCell>
                <mxCell id="qlpWUZ75xZie_0icfUTR-5" value="OUTPUT &quot;please input &lt;br&gt;valid number&quot;" style="shape=parallelogram;perimeter=parallelogramPerimeter;whiteSpace=wrap;html=1;fixedSize=1;" parent="1" vertex="1">
                    <mxGeometry x="490" y="170" width="160" height="80" as="geometry"/>
                </mxCell>
                <mxCell id="qlpWUZ75xZie_0icfUTR-12" value="" style="edgeStyle=none;html=1;" parent="1" source="qlpWUZ75xZie_0icfUTR-9" target="qlpWUZ75xZie_0icfUTR-11" edge="1">
                    <mxGeometry relative="1" as="geometry"/>
                </mxCell>
                <mxCell id="qlpWUZ75xZie_0icfUTR-9" value="hasil = 6*s*s" style="whiteSpace=wrap;html=1;" parent="1" vertex="1">
                    <mxGeometry x="650" y="310" width="120" height="60" as="geometry"/>
                </mxCell>
                <mxCell id="qlpWUZ75xZie_0icfUTR-15" style="edgeStyle=none;html=1;exitX=0;exitY=0.5;exitDx=0;exitDy=0;entryX=1;entryY=0.5;entryDx=0;entryDy=0;" parent="1" source="qlpWUZ75xZie_0icfUTR-11" target="qlpWUZ75xZie_0icfUTR-14" edge="1">
                    <mxGeometry relative="1" as="geometry"/>
                </mxCell>
                <mxCell id="qlpWUZ75xZie_0icfUTR-11" value="OUTPUT hasil" style="shape=parallelogram;perimeter=parallelogramPerimeter;whiteSpace=wrap;html=1;fixedSize=1;" parent="1" vertex="1">
                    <mxGeometry x="650" y="410" width="120" height="60" as="geometry"/>
                </mxCell>
                <mxCell id="qlpWUZ75xZie_0icfUTR-14" value="END" style="ellipse;whiteSpace=wrap;html=1;" parent="1" vertex="1">
                    <mxGeometry x="80" y="400" width="120" height="80" as="geometry"/>
                </mxCell>
                <mxCell id="qlpWUZ75xZie_0icfUTR-17" value="Menghitung Luas Dadu" style="text;html=1;align=center;verticalAlign=middle;resizable=0;points=[];autosize=1;strokeColor=none;fillColor=none;strokeWidth=2;" parent="1" vertex="1">
                    <mxGeometry x="350" y="110" width="150" height="30" as="geometry"/>
                </mxCell>
            </root>
        </mxGraphModel>
    </diagram>
</mxfile>